<?xml version="1.0" encoding="utf-8"?>
<!-- Generator: Adobe Illustrator 22.1.0, SVG Export Plug-In . SVG Version: 6.00 Build 0)  -->
<svg version="1.1" id="Capa_1" xmlns="http://www.w3.org/2000/svg" xmlns:xlink="http://www.w3.org/1999/xlink" x="0px" y="0px"
	 viewBox="0 0 579.1 166.7" style="enable-background:new 0 0 579.1 166.7;" xml:space="preserve">
<style type="text/css">
	.st0{fill:#D81E05;}
	.st1{fill-rule:evenodd;clip-rule:evenodd;fill:#FFFFFF;}
	.st2{fill:#FFFFFF;}
</style>
<rect y="-0.1" class="st0" width="579.1" height="166.7"/>
<g>
	<path class="st1" d="M88.9,73.2c0.6,0.3,1,0.9,1,1.6c0,0.4-0.1,0.7-0.3,1l-5.7,9.8c-0.1,0.3-0.4,0.5-0.7,0.5
		c-0.3,0-0.6-0.2-0.8-0.5l-5.6-9.7c-0.2-0.3-0.3-0.6-0.3-1c0-0.7,0.4-1.3,1-1.5c1.9-0.7,3.8-1.1,5.8-1.1
		C85.2,72.2,87.1,72.5,88.9,73.2L88.9,73.2z M72.2,76.4c0.4-0.3,1-0.4,1.5-0.1c0.3,0.2,0.5,0.4,0.6,0.6l4.6,7.9
		c0.1,0.2,0.2,0.5,0,0.7c-0.1,0.2-0.4,0.4-0.7,0.3l-9.2,0c-0.3,0-0.6,0-0.8-0.2c-0.5-0.3-0.7-0.8-0.7-1.3c0.3-1.6,0.8-3.1,1.6-4.5
		C70,78.6,71,77.4,72.2,76.4L72.2,76.4z M94.1,76.4c-0.4-0.3-1-0.4-1.5-0.1c-0.3,0.2-0.4,0.4-0.6,0.6l-4.6,7.9
		c-0.2,0.2-0.2,0.5,0,0.7c0.2,0.2,0.4,0.4,0.7,0.3l9.2,0c0.3,0,0.6,0,0.8-0.2c0.5-0.3,0.7-0.8,0.7-1.3c-0.3-1.6-0.8-3.1-1.6-4.5
		C96.4,78.6,95.3,77.4,94.1,76.4L94.1,76.4z M84.5,88.7v8.5h-2.7v-8.5c-1.3,0-3,0-3.6,0l-9,0c-0.8,0-1.5-0.1-2.3-0.5
		c-1.4-0.8-2.1-2.3-2-3.7c0-0.2,0-0.4,0.1-0.6c0.3-1.8,0.9-3.6,1.9-5.2c1-1.7,2.2-3.1,3.6-4.3c0.9-0.7,2.3-1.1,3.5-0.8
		c0.3-1.2,1.2-2.1,2.2-2.7c0.2-0.1,0.4-0.2,0.5-0.3c2-0.7,4.3-1.1,6.5-1.1c2.3,0,4.5,0.4,6.6,1.2c1.2,0.5,2.2,1.6,2.7,2.9
		c1.2-0.3,2.4,0,3.3,0.7c1.4,1.2,2.8,2.8,3.8,4.4c1,1.7,1.6,3.4,1.9,5.2c0,0.2,0,0.4,0,0.6c0.1,1.5-0.7,2.9-2,3.7
		c-0.7,0.4-1.5,0.6-2.3,0.5l-9,0C87.5,88.7,85.8,88.7,84.5,88.7z M83.2,58.3c-13.8,0-25.1,11.2-25.1,25c0,13.8,11.2,25.1,25.1,25.1
		c13.8,0,25.1-11.2,25.1-25.1C108.2,69.5,97,58.3,83.2,58.3z M83.2,55.6c15.3,0,27.7,12.4,27.7,27.7c0,15.3-12.4,27.7-27.7,27.7
		c-15.3,0-27.7-12.4-27.7-27.7C55.5,68,67.9,55.6,83.2,55.6z"/>
	<polygon class="st2" points="154.7,55.5 168.3,83.2 181.8,55.5 202.3,55.5 202.3,111 181.8,111 181.8,83.2 168.3,111 154.7,83.2 
		154.7,111 134.2,111 134.2,55.5 	"/>
	<path class="st2" d="M243,63.8l-8.3,29h16.6L243,63.8z M208.9,111l16-55.5h36.2L277,111h-20.5l-2.6-9.1H232l-2.6,9.1H208.9z"/>
	<path class="st1" d="M308.8,61.9c4.6,0,9.1,2.5,9.1,7.5c0,5-4,9.1-9.1,9.1h-4.4V61.9H308.8z M321.9,55.5c9,0,16.2,7.2,16.2,16.2
		c0,8.9-7.2,16.2-16.2,16.2H304V111h-20.5V55.5H321.9z"/>
	<polygon class="st2" points="345.2,55.5 399.7,55.5 399.7,64.6 365.7,64.6 365.7,78.7 399.7,78.7 399.7,87.8 365.7,87.8 365.7,111 
		345.2,111 	"/>
	<polygon class="st2" points="489.6,101.9 523.6,101.9 523.6,111 469.1,111 469.1,55.5 523.6,55.5 523.6,64.6 489.6,64.6 
		489.6,78.7 523.6,78.7 523.6,87.8 489.6,87.8 	"/>
	<path class="st1" d="M432.1,61.9c4.5,0,9.1,2.5,9.1,7.5c0,5-4.1,9.1-9.1,9.1h-4.4V61.9H432.1z M461.4,96.7v0.5
		C461.4,97,461.4,96.8,461.4,96.7z M461.4,97.1V111h-13.9h-6.3V97.6c0-0.2,0-0.3,0-0.5c0-5-4.1-9.1-9.1-9.1h-4.4v23h-20.9V83.3V55.5
		h22.8h17.9c7.7,0,13.9,6.2,13.9,13.9c0,7.7-6.2,13.9-13.9,13.9c7.5,0,13.6,6,13.9,13.4C461.4,96.8,461.4,97,461.4,97.1z"/>
</g>
</svg>
